<mxfile host="app.diagrams.net" agent="Mozilla/5.0 (Windows NT 10.0; Win64; x64) AppleWebKit/537.36 (KHTML, like Gecko) Chrome/135.0.0.0 Safari/537.36" version="26.2.12">
  <diagram name="Página-1" id="5UrhdrMhgDa88gOqIbde">
    <mxGraphModel dx="1428" dy="777" grid="1" gridSize="10" guides="1" tooltips="1" connect="1" arrows="1" fold="1" page="1" pageScale="1" pageWidth="1169" pageHeight="827" math="0" shadow="0">
      <root>
        <mxCell id="0" />
        <mxCell id="1" parent="0" />
        <mxCell id="4pzBxvtClXWS6NBNEgb9-4" value="" style="edgeStyle=orthogonalEdgeStyle;rounded=0;orthogonalLoop=1;jettySize=auto;html=1;" edge="1" parent="1" source="4pzBxvtClXWS6NBNEgb9-2" target="4pzBxvtClXWS6NBNEgb9-3">
          <mxGeometry relative="1" as="geometry" />
        </mxCell>
        <mxCell id="4pzBxvtClXWS6NBNEgb9-2" value="Incio" style="ellipse;whiteSpace=wrap;html=1;aspect=fixed;" vertex="1" parent="1">
          <mxGeometry x="70" y="50" width="80" height="80" as="geometry" />
        </mxCell>
        <mxCell id="4pzBxvtClXWS6NBNEgb9-6" value="" style="edgeStyle=orthogonalEdgeStyle;rounded=0;orthogonalLoop=1;jettySize=auto;html=1;" edge="1" parent="1" source="4pzBxvtClXWS6NBNEgb9-3" target="4pzBxvtClXWS6NBNEgb9-5">
          <mxGeometry relative="1" as="geometry" />
        </mxCell>
        <mxCell id="4pzBxvtClXWS6NBNEgb9-3" value="Ingrese el primer numero" style="whiteSpace=wrap;html=1;" vertex="1" parent="1">
          <mxGeometry x="210" y="60" width="120" height="60" as="geometry" />
        </mxCell>
        <mxCell id="4pzBxvtClXWS6NBNEgb9-8" value="" style="edgeStyle=orthogonalEdgeStyle;rounded=0;orthogonalLoop=1;jettySize=auto;html=1;" edge="1" parent="1" source="4pzBxvtClXWS6NBNEgb9-5" target="4pzBxvtClXWS6NBNEgb9-7">
          <mxGeometry relative="1" as="geometry" />
        </mxCell>
        <mxCell id="4pzBxvtClXWS6NBNEgb9-5" value="A" style="whiteSpace=wrap;html=1;" vertex="1" parent="1">
          <mxGeometry x="370" y="75" width="40" height="30" as="geometry" />
        </mxCell>
        <mxCell id="4pzBxvtClXWS6NBNEgb9-10" value="" style="edgeStyle=orthogonalEdgeStyle;rounded=0;orthogonalLoop=1;jettySize=auto;html=1;" edge="1" parent="1" source="4pzBxvtClXWS6NBNEgb9-7" target="4pzBxvtClXWS6NBNEgb9-9">
          <mxGeometry relative="1" as="geometry" />
        </mxCell>
        <mxCell id="4pzBxvtClXWS6NBNEgb9-7" value="Ingrese el segundo valor" style="whiteSpace=wrap;html=1;" vertex="1" parent="1">
          <mxGeometry x="450" y="60" width="120" height="60" as="geometry" />
        </mxCell>
        <mxCell id="4pzBxvtClXWS6NBNEgb9-12" value="" style="edgeStyle=orthogonalEdgeStyle;rounded=0;orthogonalLoop=1;jettySize=auto;html=1;" edge="1" parent="1" source="4pzBxvtClXWS6NBNEgb9-9" target="4pzBxvtClXWS6NBNEgb9-11">
          <mxGeometry relative="1" as="geometry" />
        </mxCell>
        <mxCell id="4pzBxvtClXWS6NBNEgb9-9" value="B" style="whiteSpace=wrap;html=1;" vertex="1" parent="1">
          <mxGeometry x="600" y="75" width="40" height="30" as="geometry" />
        </mxCell>
        <mxCell id="4pzBxvtClXWS6NBNEgb9-18" value="" style="edgeStyle=orthogonalEdgeStyle;rounded=0;orthogonalLoop=1;jettySize=auto;html=1;" edge="1" parent="1" source="4pzBxvtClXWS6NBNEgb9-11" target="4pzBxvtClXWS6NBNEgb9-17">
          <mxGeometry relative="1" as="geometry" />
        </mxCell>
        <mxCell id="4pzBxvtClXWS6NBNEgb9-11" value="Ingrese1 Suma, Ingrese 2 Reste, Ingrese 3 Multiplicación, Ingrese 4 divison" style="whiteSpace=wrap;html=1;" vertex="1" parent="1">
          <mxGeometry x="680" y="55" width="130" height="70" as="geometry" />
        </mxCell>
        <mxCell id="4pzBxvtClXWS6NBNEgb9-20" value="" style="edgeStyle=orthogonalEdgeStyle;rounded=0;orthogonalLoop=1;jettySize=auto;html=1;" edge="1" parent="1" source="4pzBxvtClXWS6NBNEgb9-17" target="4pzBxvtClXWS6NBNEgb9-19">
          <mxGeometry relative="1" as="geometry" />
        </mxCell>
        <mxCell id="4pzBxvtClXWS6NBNEgb9-17" value="C" style="whiteSpace=wrap;html=1;" vertex="1" parent="1">
          <mxGeometry x="860" y="75" width="30" height="30" as="geometry" />
        </mxCell>
        <mxCell id="4pzBxvtClXWS6NBNEgb9-22" value="" style="edgeStyle=orthogonalEdgeStyle;rounded=0;orthogonalLoop=1;jettySize=auto;html=1;" edge="1" parent="1" source="4pzBxvtClXWS6NBNEgb9-19" target="4pzBxvtClXWS6NBNEgb9-21">
          <mxGeometry relative="1" as="geometry" />
        </mxCell>
        <mxCell id="4pzBxvtClXWS6NBNEgb9-23" value="Si" style="edgeLabel;html=1;align=center;verticalAlign=middle;resizable=0;points=[];" vertex="1" connectable="0" parent="4pzBxvtClXWS6NBNEgb9-22">
          <mxGeometry y="-1" relative="1" as="geometry">
            <mxPoint as="offset" />
          </mxGeometry>
        </mxCell>
        <mxCell id="4pzBxvtClXWS6NBNEgb9-25" value="" style="edgeStyle=orthogonalEdgeStyle;rounded=0;orthogonalLoop=1;jettySize=auto;html=1;" edge="1" parent="1" source="4pzBxvtClXWS6NBNEgb9-19" target="4pzBxvtClXWS6NBNEgb9-24">
          <mxGeometry relative="1" as="geometry" />
        </mxCell>
        <mxCell id="4pzBxvtClXWS6NBNEgb9-26" value="No" style="edgeLabel;html=1;align=center;verticalAlign=middle;resizable=0;points=[];" vertex="1" connectable="0" parent="4pzBxvtClXWS6NBNEgb9-25">
          <mxGeometry x="-0.175" y="-4" relative="1" as="geometry">
            <mxPoint as="offset" />
          </mxGeometry>
        </mxCell>
        <mxCell id="4pzBxvtClXWS6NBNEgb9-19" value="C=1" style="rhombus;whiteSpace=wrap;html=1;" vertex="1" parent="1">
          <mxGeometry x="835" y="160" width="80" height="80" as="geometry" />
        </mxCell>
        <mxCell id="4pzBxvtClXWS6NBNEgb9-42" style="edgeStyle=orthogonalEdgeStyle;rounded=0;orthogonalLoop=1;jettySize=auto;html=1;entryX=0.5;entryY=0;entryDx=0;entryDy=0;" edge="1" parent="1" source="4pzBxvtClXWS6NBNEgb9-21" target="4pzBxvtClXWS6NBNEgb9-41">
          <mxGeometry relative="1" as="geometry">
            <Array as="points">
              <mxPoint x="880" y="420" />
            </Array>
          </mxGeometry>
        </mxCell>
        <mxCell id="4pzBxvtClXWS6NBNEgb9-21" value="Su respuesta es A+B" style="whiteSpace=wrap;html=1;" vertex="1" parent="1">
          <mxGeometry x="815" y="280" width="120" height="60" as="geometry" />
        </mxCell>
        <mxCell id="4pzBxvtClXWS6NBNEgb9-28" value="" style="edgeStyle=orthogonalEdgeStyle;rounded=0;orthogonalLoop=1;jettySize=auto;html=1;" edge="1" parent="1" source="4pzBxvtClXWS6NBNEgb9-24" target="4pzBxvtClXWS6NBNEgb9-27">
          <mxGeometry relative="1" as="geometry" />
        </mxCell>
        <mxCell id="4pzBxvtClXWS6NBNEgb9-29" value="Si" style="edgeLabel;html=1;align=center;verticalAlign=middle;resizable=0;points=[];" vertex="1" connectable="0" parent="4pzBxvtClXWS6NBNEgb9-28">
          <mxGeometry x="-0.4" y="-2" relative="1" as="geometry">
            <mxPoint as="offset" />
          </mxGeometry>
        </mxCell>
        <mxCell id="4pzBxvtClXWS6NBNEgb9-31" value="" style="edgeStyle=orthogonalEdgeStyle;rounded=0;orthogonalLoop=1;jettySize=auto;html=1;" edge="1" parent="1" source="4pzBxvtClXWS6NBNEgb9-24" target="4pzBxvtClXWS6NBNEgb9-30">
          <mxGeometry relative="1" as="geometry" />
        </mxCell>
        <mxCell id="4pzBxvtClXWS6NBNEgb9-36" value="No" style="edgeLabel;html=1;align=center;verticalAlign=middle;resizable=0;points=[];" vertex="1" connectable="0" parent="4pzBxvtClXWS6NBNEgb9-31">
          <mxGeometry x="-0.05" y="-3" relative="1" as="geometry">
            <mxPoint as="offset" />
          </mxGeometry>
        </mxCell>
        <mxCell id="4pzBxvtClXWS6NBNEgb9-24" value="C=2" style="rhombus;whiteSpace=wrap;html=1;" vertex="1" parent="1">
          <mxGeometry x="675" y="160" width="80" height="80" as="geometry" />
        </mxCell>
        <mxCell id="4pzBxvtClXWS6NBNEgb9-43" style="edgeStyle=orthogonalEdgeStyle;rounded=0;orthogonalLoop=1;jettySize=auto;html=1;entryX=0.5;entryY=0;entryDx=0;entryDy=0;" edge="1" parent="1" source="4pzBxvtClXWS6NBNEgb9-27" target="4pzBxvtClXWS6NBNEgb9-41">
          <mxGeometry relative="1" as="geometry" />
        </mxCell>
        <mxCell id="4pzBxvtClXWS6NBNEgb9-27" value="Su respuesta es A-B" style="whiteSpace=wrap;html=1;" vertex="1" parent="1">
          <mxGeometry x="655" y="280" width="120" height="60" as="geometry" />
        </mxCell>
        <mxCell id="4pzBxvtClXWS6NBNEgb9-33" value="" style="edgeStyle=orthogonalEdgeStyle;rounded=0;orthogonalLoop=1;jettySize=auto;html=1;" edge="1" parent="1" source="4pzBxvtClXWS6NBNEgb9-30" target="4pzBxvtClXWS6NBNEgb9-32">
          <mxGeometry relative="1" as="geometry" />
        </mxCell>
        <mxCell id="4pzBxvtClXWS6NBNEgb9-37" value="Si" style="edgeLabel;html=1;align=center;verticalAlign=middle;resizable=0;points=[];" vertex="1" connectable="0" parent="4pzBxvtClXWS6NBNEgb9-33">
          <mxGeometry x="-0.6" relative="1" as="geometry">
            <mxPoint as="offset" />
          </mxGeometry>
        </mxCell>
        <mxCell id="4pzBxvtClXWS6NBNEgb9-35" value="" style="edgeStyle=orthogonalEdgeStyle;rounded=0;orthogonalLoop=1;jettySize=auto;html=1;" edge="1" parent="1" source="4pzBxvtClXWS6NBNEgb9-30" target="4pzBxvtClXWS6NBNEgb9-34">
          <mxGeometry relative="1" as="geometry" />
        </mxCell>
        <mxCell id="4pzBxvtClXWS6NBNEgb9-38" value="No" style="edgeLabel;html=1;align=center;verticalAlign=middle;resizable=0;points=[];" vertex="1" connectable="0" parent="4pzBxvtClXWS6NBNEgb9-35">
          <mxGeometry x="-0.125" y="1" relative="1" as="geometry">
            <mxPoint as="offset" />
          </mxGeometry>
        </mxCell>
        <mxCell id="4pzBxvtClXWS6NBNEgb9-30" value="C=3" style="rhombus;whiteSpace=wrap;html=1;" vertex="1" parent="1">
          <mxGeometry x="515" y="160" width="80" height="80" as="geometry" />
        </mxCell>
        <mxCell id="4pzBxvtClXWS6NBNEgb9-44" style="edgeStyle=orthogonalEdgeStyle;rounded=0;orthogonalLoop=1;jettySize=auto;html=1;" edge="1" parent="1" source="4pzBxvtClXWS6NBNEgb9-32" target="4pzBxvtClXWS6NBNEgb9-41">
          <mxGeometry relative="1" as="geometry" />
        </mxCell>
        <mxCell id="4pzBxvtClXWS6NBNEgb9-32" value="Su respuesta es A*B" style="whiteSpace=wrap;html=1;" vertex="1" parent="1">
          <mxGeometry x="495" y="280" width="120" height="60" as="geometry" />
        </mxCell>
        <mxCell id="4pzBxvtClXWS6NBNEgb9-40" value="" style="edgeStyle=orthogonalEdgeStyle;rounded=0;orthogonalLoop=1;jettySize=auto;html=1;" edge="1" parent="1" source="4pzBxvtClXWS6NBNEgb9-34" target="4pzBxvtClXWS6NBNEgb9-39">
          <mxGeometry relative="1" as="geometry" />
        </mxCell>
        <mxCell id="4pzBxvtClXWS6NBNEgb9-34" value="C=4" style="rhombus;whiteSpace=wrap;html=1;" vertex="1" parent="1">
          <mxGeometry x="355" y="160" width="80" height="80" as="geometry" />
        </mxCell>
        <mxCell id="4pzBxvtClXWS6NBNEgb9-45" style="edgeStyle=orthogonalEdgeStyle;rounded=0;orthogonalLoop=1;jettySize=auto;html=1;" edge="1" parent="1" source="4pzBxvtClXWS6NBNEgb9-39" target="4pzBxvtClXWS6NBNEgb9-41">
          <mxGeometry relative="1" as="geometry">
            <Array as="points">
              <mxPoint x="395" y="420" />
            </Array>
          </mxGeometry>
        </mxCell>
        <mxCell id="4pzBxvtClXWS6NBNEgb9-39" value="Su respuesta es A/B" style="whiteSpace=wrap;html=1;" vertex="1" parent="1">
          <mxGeometry x="335" y="280" width="120" height="60" as="geometry" />
        </mxCell>
        <mxCell id="4pzBxvtClXWS6NBNEgb9-41" value="Fin" style="ellipse;whiteSpace=wrap;html=1;aspect=fixed;" vertex="1" parent="1">
          <mxGeometry x="595" y="420" width="80" height="80" as="geometry" />
        </mxCell>
      </root>
    </mxGraphModel>
  </diagram>
</mxfile>
